<?xml version="1.0" encoding="UTF-8"?>
<svg width="752pt" height="752pt" version="1.1" viewBox="0 0 752 752" xmlns="http://www.w3.org/2000/svg">
 <g fill="#fff">
  <path d="m425.66 530.1c43.438-14.043 78.938-45.758 97.766-87.344h-51.41c-8.9961 37.617-25.445 68.371-46.355 87.344z"/>
  <path d="m388.95 442.76v79.965c24.215-8.2227 45.062-38.848 56.137-79.965z"/>
  <path d="m363.05 522.72v-79.961h-56.199c11.07 41.113 31.922 71.738 56.199 79.961z"/>
  <path d="m279.98 442.76h-51.41c18.82 41.617 54.355 73.344 97.836 87.344-21.043-18.906-37.488-49.664-46.426-87.344z"/>
  <path d="m532.56 334.89h-55.812c1.8867 13.625 2.8359 27.359 2.8477 41.113 0.011719 13.668-0.91797 27.32-2.7852 40.855h55.812c7.0156-26.875 6.9922-55.105-0.0625-81.969z"/>
  <path d="m453.7 376c-0.019531-13.766-1.0781-27.508-3.1719-41.113h-61.578v81.969h61.578c2.0938-13.516 3.1523-27.176 3.1719-40.855z"/>
  <path d="m298.3 376c-0.003907 13.68 1.0352 27.336 3.1094 40.855h61.637v-81.969h-61.637c-2.0742 13.605-3.1133 27.352-3.1094 41.113z"/>
  <path d="m272.41 376c-0.011719-13.75 0.91797-27.488 2.7852-41.113h-55.75c-7.0586 26.863-7.0781 55.094-0.0625 81.969h55.746c-1.8086-13.543-2.7188-27.191-2.7188-40.855z"/>
  <path d="m523.3 308.99c-18.832-41.48-54.281-73.102-97.637-87.086 20.914 18.906 37.293 49.598 46.293 87.086z"/>
  <path d="m388.95 229.29v79.703h56.07c-11.07-40.984-31.852-71.547-56.07-79.703z"/>
  <path d="m306.92 308.99h56.133v-79.703c-24.277 8.1562-45.062 38.719-56.133 79.703z"/>
  <path d="m326.28 221.9c-43.328 14.008-78.754 45.621-97.578 87.086h51.281c9-37.488 25.383-68.18 46.297-87.086z"/>
 </g>
</svg>
